<?xml version="1.0" standalone="no"?><!DOCTYPE svg PUBLIC "-//W3C//DTD SVG 1.1//EN" "http://www.w3.org/Graphics/SVG/1.1/DTD/svg11.dtd"><svg t="1628230782696" class="icon" viewBox="0 0 1024 1024" version="1.1" xmlns="http://www.w3.org/2000/svg" p-id="19316" xmlns:xlink="http://www.w3.org/1999/xlink" width="200" height="200"><defs><style type="text/css"></style></defs><path d="M272.896 560.5888c6.656 4.4544 12.2368 10.4448 16.384 17.5616l24.832 42.496-31.3344 47.9232-37.376-63.9488-90.9312 155.7504a6.144 6.144 0 0 0-0.6144 1.5872L153.6 763.904l0.1536 1.8944 0.512 1.9968h87.7056l0.1536 3.9424c1.2288 17.2032 6.4 33.4336 14.6944 47.5136L154.112 819.2C125.5424 819.2 102.4 794.4192 102.4 763.904c0-10.3936 2.7136-20.5312 7.8336-29.3376l91.392-156.416c15.104-25.9072 47.0016-33.792 71.2192-17.5616z m364.032-243.4048c4.9664 3.7376 9.2672 8.3456 12.7488 13.6192l262.5536 401.408c16.384 24.9856 10.752 59.4944-12.6976 77.0048a49.408 49.408 0 0 1-29.6448 9.984H344.7296c-28.5184 0-51.712-24.7808-51.712-55.296 0-11.3664 3.2768-22.4256 9.3696-31.744l262.6048-401.408c16.384-24.9856 48.5888-31.0784 71.9872-13.568z m-29.6448 42.3936l-262.0416 400.64-0.7168 1.6384-0.256 2.048 0.1024 1.8944 0.512 1.9968-0.1536 0.2048h524.2368l0.8704-1.1776a7.9872 7.9872 0 0 0 0.4096-4.4544l-0.8192-2.1504-262.144-400.64zM281.6 204.8a76.8 76.8 0 1 1 0 153.6 76.8 76.8 0 0 1 0-153.6z" fill="#FFFFFF" p-id="19317"></path></svg>